<mxfile host="" modified="2021-02-16T09:52:08.846Z" agent="5.0 (Windows NT 6.2; Win64; x64) AppleWebKit/537.36 (KHTML, like Gecko) Chrome/84.0.4147.105 Safari/537.36" version="13.7.9" etag="J5Tn6onCTjRHBgZbk1Rl" type="embed"><diagram id="fA4G8LzVWr6EJqkm3IQU" name="Page-1"><mxGraphModel dx="691" dy="614" grid="1" gridSize="10" guides="1" tooltips="1" connect="1" arrows="1" fold="1" page="1" pageScale="1" pageWidth="850" pageHeight="1100" math="0" shadow="0"><root><mxCell id="0"/><mxCell id="1" parent="0"/><mxCell id="14" style="edgeStyle=none;rounded=0;orthogonalLoop=1;jettySize=auto;html=1;exitX=0.5;exitY=1;exitDx=0;exitDy=0;entryX=0.5;entryY=0;entryDx=0;entryDy=0;" edge="1" parent="1" source="2" target="4"><mxGeometry relative="1" as="geometry"/></mxCell><mxCell id="2" value="Start" style="ellipse;whiteSpace=wrap;html=1;fillColor=none;" vertex="1" parent="1"><mxGeometry x="270" y="30" width="110" height="50" as="geometry"/></mxCell><mxCell id="15" style="edgeStyle=none;rounded=0;orthogonalLoop=1;jettySize=auto;html=1;exitX=0.5;exitY=1;exitDx=0;exitDy=0;entryX=0.5;entryY=0;entryDx=0;entryDy=0;" edge="1" parent="1" source="4" target="5"><mxGeometry relative="1" as="geometry"/></mxCell><mxCell id="4" value="Eingabe des Vor- und Nachnamens&lt;br&gt;durch den Nutzer" style="shape=parallelogram;perimeter=parallelogramPerimeter;whiteSpace=wrap;html=1;fixedSize=1;fillColor=none;" vertex="1" parent="1"><mxGeometry x="207.5" y="120" width="235" height="50" as="geometry"/></mxCell><mxCell id="16" style="edgeStyle=none;rounded=0;orthogonalLoop=1;jettySize=auto;html=1;exitX=0.5;exitY=1;exitDx=0;exitDy=0;" edge="1" parent="1" source="5" target="7"><mxGeometry relative="1" as="geometry"/></mxCell><mxCell id="5" value="Aufrufen der &lt;br&gt;gespeicherten Daten 端ber Autoren als Liste" style="rounded=0;whiteSpace=wrap;html=1;fillColor=none;" vertex="1" parent="1"><mxGeometry x="251.25" y="200" width="147.5" height="60" as="geometry"/></mxCell><mxCell id="17" style="edgeStyle=none;rounded=0;orthogonalLoop=1;jettySize=auto;html=1;exitX=0.5;exitY=1;exitDx=0;exitDy=0;" edge="1" parent="1" source="7" target="8"><mxGeometry relative="1" as="geometry"/></mxCell><mxCell id="20" style="edgeStyle=orthogonalEdgeStyle;rounded=0;orthogonalLoop=1;jettySize=auto;html=1;exitX=1;exitY=0.5;exitDx=0;exitDy=0;entryX=0.5;entryY=0;entryDx=0;entryDy=0;" edge="1" parent="1" source="7" target="12"><mxGeometry relative="1" as="geometry"/></mxCell><mxCell id="7" value="Existiert&lt;br&gt;&amp;nbsp;bereits Autor mit &lt;br&gt;gleichen Vor- und &lt;br&gt;Nachnamen?&amp;nbsp;" style="rhombus;whiteSpace=wrap;html=1;fillColor=none;" vertex="1" parent="1"><mxGeometry x="251.25" y="300" width="150" height="140" as="geometry"/></mxCell><mxCell id="18" style="edgeStyle=none;rounded=0;orthogonalLoop=1;jettySize=auto;html=1;exitX=0.5;exitY=1;exitDx=0;exitDy=0;entryX=0.5;entryY=0;entryDx=0;entryDy=0;" edge="1" parent="1" source="8" target="9"><mxGeometry relative="1" as="geometry"/></mxCell><mxCell id="8" value="Hinzuf端gen des Autors in die Liste" style="rounded=0;whiteSpace=wrap;html=1;fillColor=none;" vertex="1" parent="1"><mxGeometry x="265" y="500" width="120" height="60" as="geometry"/></mxCell><mxCell id="19" style="edgeStyle=none;rounded=0;orthogonalLoop=1;jettySize=auto;html=1;exitX=0.5;exitY=1;exitDx=0;exitDy=0;" edge="1" parent="1" source="9" target="10"><mxGeometry relative="1" as="geometry"/></mxCell><mxCell id="9" value="Speicherung der neuen Informationen" style="rounded=0;whiteSpace=wrap;html=1;fillColor=none;" vertex="1" parent="1"><mxGeometry x="265" y="600" width="120" height="60" as="geometry"/></mxCell><mxCell id="25" style="edgeStyle=none;rounded=0;orthogonalLoop=1;jettySize=auto;html=1;exitX=1;exitY=0.5;exitDx=0;exitDy=0;entryX=0;entryY=0.5;entryDx=0;entryDy=0;" edge="1" parent="1" source="10" target="23"><mxGeometry relative="1" as="geometry"/></mxCell><mxCell id="10" value="Ausgabe: Erfolgreiches Hinzuf端gen" style="shape=parallelogram;perimeter=parallelogramPerimeter;whiteSpace=wrap;html=1;fixedSize=1;fillColor=none;" vertex="1" parent="1"><mxGeometry x="245" y="710" width="160" height="60" as="geometry"/></mxCell><mxCell id="26" style="edgeStyle=none;rounded=0;orthogonalLoop=1;jettySize=auto;html=1;exitX=0.5;exitY=1;exitDx=0;exitDy=0;entryX=0.5;entryY=0;entryDx=0;entryDy=0;" edge="1" parent="1" source="12" target="23"><mxGeometry relative="1" as="geometry"/></mxCell><mxCell id="12" value="Ausgabe: Hinzuf端gen des neuen Autors nicht erfolgreich" style="shape=parallelogram;perimeter=parallelogramPerimeter;whiteSpace=wrap;html=1;fixedSize=1;fillColor=none;" vertex="1" parent="1"><mxGeometry x="425" y="500" width="210" height="60" as="geometry"/></mxCell><mxCell id="21" value="nein" style="text;html=1;strokeColor=none;fillColor=none;align=center;verticalAlign=middle;whiteSpace=wrap;rounded=0;" vertex="1" parent="1"><mxGeometry x="280" y="450" width="40" height="20" as="geometry"/></mxCell><mxCell id="22" value="ja" style="text;html=1;strokeColor=none;fillColor=none;align=center;verticalAlign=middle;whiteSpace=wrap;rounded=0;" vertex="1" parent="1"><mxGeometry x="442.5" y="340" width="40" height="20" as="geometry"/></mxCell><mxCell id="23" value="Ende" style="ellipse;whiteSpace=wrap;html=1;fillColor=none;" vertex="1" parent="1"><mxGeometry x="475" y="715" width="110" height="50" as="geometry"/></mxCell></root></mxGraphModel></diagram></mxfile>